<svg width="86" height="28" viewBox="0 0 86 28" fill="none" xmlns="http://www.w3.org/2000/svg">
<path d="M1 8.53215L2.35484 12.2054L3.70968 15.4486L5.06452 14.8033L6.41936 16.4432L7.77419 21.2438L9.12903 19.5664L10.4839 17.0711L11.8387 19.4913L13.1935 23.6898L14.5484 24.9761L15.9032 23.9027L17.2581 26.1775L18.6129 20.977L19.9677 21.2213L21.3226 18.5975L22.6774 19.7277L24.0323 20.0939L25.3871 19.6166L26.7419 17.5593L28.0968 22.6117L29.4516 20.4091L30.8065 18.7251L32.1613 17.4763L33.5161 19.8412L34.871 21.7549L36.2258 21.4844L37.5806 20.373L38.9355 21.3315L40.2903 19.5125L41.6452 16.3743L43 13.2919L44.3548 13.4284L45.7097 10.8225L47.0645 9.8888L48.4194 6.47021L49.7742 6.13304L51.129 5.16654L52.4839 8.30846L53.8387 6.1471L55.1935 5.1928L56.5484 6.47911L57.9032 8.22921L59.2581 6.94759L60.6129 9.43205L61.9677 7.93894L63.3226 4.74449L64.6774 4.34918L66.0323 2.42323L67.3871 1.82251L68.7419 2.00493L70.0968 5.80009L71.4516 9.29934L72.8065 11.2375L74.1613 9.55726L75.5161 10.2494L76.871 14.9914L78.2258 13.4242L79.5806 16.7991L80.9355 16.3522L82.2903 13.4715L83.6452 11.2445L85 13.163" stroke="url(#paint0_linear)" stroke-width="2" stroke-linecap="round" stroke-linejoin="round"/>
<defs>
<linearGradient id="paint0_linear" x1="4.93306" y1="13.2759" x2="82.0034" y2="13.2759" gradientUnits="userSpaceOnUse">
<stop stop-color="#B3AEF5"/>
<stop offset="0.413373" stop-color="#D7CBE7"/>
<stop offset="0.653973" stop-color="#E5C8C8"/>
<stop offset="1" stop-color="#ECBDAA"/>
</linearGradient>
</defs>
</svg>
