<svg width="87" height="86" viewBox="0 0 87 86" fill="none" xmlns="http://www.w3.org/2000/svg">
<path d="M35.5295 26.5182L32.678 28.4443C32.4533 28.6701 32.3835 28.8106 32.678 29.0183L32.9555 29.2442L36.7584 31.9008C36.7584 31.9008 40.534 29.8495 41.3401 29.5041C42.7598 28.8669 44.2982 28.5409 45.8529 28.5477C46.9066 28.6185 47.9525 28.7772 48.98 29.0221C50.2916 29.3997 51.5344 29.9863 52.6612 30.7594L53.7326 31.471C53.7729 31.5106 53.8199 31.5427 53.8713 31.5659C53.9238 31.5886 53.9803 31.6003 54.0375 31.6001C54.0949 31.6002 54.1517 31.5886 54.2045 31.5659C54.256 31.5433 54.3028 31.5111 54.3423 31.471C54.3859 31.4392 54.4214 31.3976 54.4462 31.3496C54.6862 30.9767 54.8767 30.5738 55.0125 30.1512C55.1025 29.8164 55.1491 29.4714 55.1513 29.1246C55.1528 28.6291 55.0521 28.1387 54.8557 27.6842C54.6593 27.2298 54.3714 26.8211 54.0101 26.4841L53.2795 25.8427C52.3993 24.9943 51.3894 24.2934 50.2883 23.7667L49.4501 23.3473C47.9778 22.7906 46.4169 22.5083 44.8439 22.5143C43.126 22.5759 40.2358 23.3483 35.5295 26.5182Z" fill="#FCFCFC"/>
<g filter="url(#filter0_d_6901_409)">
<g style="mix-blend-mode:difference" opacity="0.9">
<path d="M24.3434 35.433C24.3178 35.7257 24.3178 36.0201 24.3434 36.3128C24.4848 37.0169 24.8765 37.6471 25.4471 38.0884L26.4835 38.9184C31.9026 42.9645 37.5046 46.8366 43.0403 50.6607L43.8775 51.1406C44.2413 51.3319 44.639 51.4511 45.0486 51.4916H45.1813C45.8408 51.4913 46.4819 51.2757 47.0057 50.8781L52.1403 47.292C53.8129 46.0471 55.6183 44.8182 57.2748 43.5282C57.8204 43.0956 58.3279 42.6177 58.792 42.0998C60.072 40.6138 60.8742 38.7814 61.0952 36.8388C61.0952 36.2074 61.1758 35.4942 61.1758 34.7471V31.0133C61.1834 30.9414 61.1834 30.8688 61.1758 30.7969V30.8637C61.1618 31.6022 61.0381 32.3346 60.8088 33.0373C60.1517 35.0373 58.8739 36.7796 57.1582 38.015C53.9125 40.3543 50.6525 42.6954 47.3243 44.9519L46.5657 45.3838C46.198 45.5694 45.7912 45.6661 45.3786 45.6661H45.1785C44.9757 45.6583 44.7745 45.6267 44.5792 45.572C44.4263 45.5323 44.2791 45.4734 44.1411 45.3969L42.954 44.6959C38.9715 41.9853 35.0269 39.2189 31.1203 36.3966L25.9857 32.5386L25.2328 31.8376C24.9021 31.5029 24.6818 31.0762 24.6013 30.6143V30.4355C24.5482 30.4355 24.3434 35.433 24.3434 35.433Z" fill="url(#paint0_radial_6901_409)"/>
</g>
</g>
<g style="mix-blend-mode:difference">
<path d="M60.8221 45.7667C60.8809 45.5916 60.9624 45.3404 61.0468 45.0939V48.424C61.0452 49.0582 60.9954 49.6913 60.898 50.3181C60.5719 52.4968 59.4674 54.4866 57.7859 55.9244L56.2688 57.1665C54.5326 58.4575 52.7471 59.7005 50.9417 60.9435L47.0683 63.6102L46.726 63.805C46.2934 64.0807 45.7894 64.2259 45.2752 64.2228C44.9727 64.2258 44.6723 64.1738 44.3886 64.0694C43.9797 63.9314 43.5936 63.7338 43.2432 63.4832L31.5404 55.3721L25.7563 51.0925C25.4226 50.8582 25.1406 50.5589 24.9275 50.2127C24.715 49.8712 24.5749 49.4901 24.516 49.093C24.4999 48.8593 24.4999 48.6247 24.516 48.391V44.439C24.5835 44.5901 24.6671 44.7336 24.7654 44.8671C25.0384 45.1898 25.3538 45.4746 25.7032 45.714L29.496 48.5322C33.1334 51.2026 36.826 53.7934 40.574 56.3046L42.9995 57.9626L44.0359 58.5093H44.0568C44.4806 58.6742 44.9375 58.7386 45.3909 58.6974C45.8431 58.657 46.2798 58.5138 46.6672 58.2787L47.1508 58.0152H47.1584L56.8586 51.1462C57.7038 50.5429 58.4554 49.8201 59.0897 49.0008C59.8596 48.0356 60.4466 46.9398 60.8221 45.7667Z" fill="url(#paint1_radial_6901_409)"/>
</g>
<g filter="url(#filter1_d_6901_409)">
<g style="mix-blend-mode:difference" opacity="0.9">
<g style="mix-blend-mode:difference" opacity="0.9">
<path d="M60.8299 45.7662C60.8887 45.5912 60.9702 45.3399 61.0546 45.0934V48.4235C61.053 49.0577 61.0032 49.6909 60.9058 50.3176C60.5797 52.4964 59.4752 54.4861 57.7937 55.9239L56.2766 57.166C54.5404 58.457 52.7549 59.7 50.9495 60.943L47.0761 63.6098L46.7338 63.8045C46.3012 64.0803 45.7972 64.2254 45.283 64.2223C44.9805 64.2253 44.6801 64.1733 44.3964 64.0689C43.9875 63.9309 43.6015 63.7333 43.251 63.4827L31.5482 55.3716L25.7641 51.0921C25.4304 50.8578 25.1484 50.5584 24.9353 50.2123C24.7228 49.8707 24.5828 49.4897 24.5238 49.0925C24.5077 48.8588 24.5077 48.6243 24.5238 48.3905V44.4385C24.5913 44.5896 24.6749 44.7332 24.7732 44.8666C25.0462 45.1893 25.3616 45.4741 25.711 45.7135L29.5038 48.5317C33.1412 51.2022 36.8338 53.793 40.5818 56.3041L43.0073 57.9621L44.0437 58.5088H44.0646C44.4885 58.6737 44.9453 58.7381 45.3987 58.697C45.8509 58.6566 46.2876 58.5133 46.675 58.2782L47.1586 58.0148H47.1662L56.8664 51.1457C57.7116 50.5424 58.4633 49.8196 59.0975 49.0003C59.8674 48.0352 60.4544 46.9394 60.8299 45.7662Z" fill="url(#paint2_radial_6901_409)"/>
</g>
</g>
</g>
<path d="M35.5295 26.5182L32.678 28.4443C32.4533 28.6701 32.3835 28.8106 32.678 29.0183L32.9555 29.2442L36.7584 31.9008C36.7584 31.9008 40.534 29.8495 41.3401 29.5041C42.7598 28.8669 44.2982 28.5409 45.8529 28.5477C46.9066 28.6185 47.9525 28.7772 48.98 29.0221C50.2916 29.3997 51.5344 29.9863 52.6612 30.7594L53.7326 31.471C53.7729 31.5106 53.8199 31.5427 53.8713 31.5659C53.9238 31.5886 53.9803 31.6003 54.0375 31.6001C54.0949 31.6002 54.1517 31.5886 54.2045 31.5659C54.256 31.5433 54.3028 31.5111 54.3423 31.471C54.3859 31.4392 54.4214 31.3976 54.4462 31.3496C54.6862 30.9767 54.8767 30.5738 55.0125 30.1512C55.1025 29.8164 55.1491 29.4714 55.1513 29.1246C55.1528 28.6291 55.0521 28.1387 54.8557 27.6842C54.6593 27.2298 54.3714 26.8211 54.0101 26.4841L53.2795 25.8427C52.3993 24.9943 51.3894 24.2934 50.2883 23.7667L49.4501 23.3473C47.9778 22.7906 46.4169 22.5083 44.8439 22.5143C43.126 22.5759 40.2358 23.3483 35.5295 26.5182Z" fill="white"/>
<g filter="url(#filter2_d_6901_409)">
<g style="mix-blend-mode:difference" opacity="0.9">
<path d="M24.3434 35.433C24.3178 35.7257 24.3178 36.0201 24.3434 36.3128C24.4848 37.0169 24.8765 37.6471 25.4471 38.0884L26.4835 38.9184C31.9026 42.9645 37.5046 46.8366 43.0403 50.6607L43.8775 51.1406C44.2413 51.3319 44.639 51.4511 45.0486 51.4916H45.1813C45.8408 51.4913 46.4819 51.2757 47.0057 50.8781L52.1403 47.292C53.8129 46.0471 55.6183 44.8182 57.2748 43.5282C57.8204 43.0956 58.3279 42.6177 58.792 42.0998C60.072 40.6138 60.8742 38.7814 61.0952 36.8388C61.0952 36.2074 61.1758 35.4942 61.1758 34.7471V31.0133C61.1834 30.9414 61.1834 30.8688 61.1758 30.7969V30.8637C61.1618 31.6022 61.0381 32.3346 60.8088 33.0373C60.1517 35.0373 58.8739 36.7796 57.1582 38.015C53.9125 40.3543 50.6525 42.6954 47.3243 44.9519L46.5657 45.3838C46.198 45.5694 45.7912 45.6661 45.3786 45.6661H45.1785C44.9757 45.6583 44.7745 45.6267 44.5792 45.572C44.4263 45.5323 44.2791 45.4734 44.1411 45.3969L42.954 44.6959C38.9715 41.9853 35.0269 39.2189 31.1203 36.3966L25.9857 32.5386L25.2328 31.8376C24.9021 31.5029 24.6818 31.0762 24.6013 30.6143V30.4355C24.5482 30.4355 24.3434 35.433 24.3434 35.433Z" fill="url(#paint3_radial_6901_409)"/>
</g>
</g>
<g style="mix-blend-mode:difference">
<path d="M60.8221 45.7667C60.8809 45.5916 60.9624 45.3404 61.0468 45.0939V48.424C61.0452 49.0582 60.9954 49.6913 60.898 50.3181C60.5719 52.4968 59.4674 54.4866 57.7859 55.9244L56.2688 57.1665C54.5326 58.4575 52.7471 59.7005 50.9417 60.9435L47.0683 63.6102L46.726 63.805C46.2934 64.0807 45.7894 64.2259 45.2752 64.2228C44.9727 64.2258 44.6723 64.1738 44.3886 64.0694C43.9797 63.9314 43.5936 63.7338 43.2432 63.4832L31.5404 55.3721L25.7563 51.0925C25.4226 50.8582 25.1406 50.5589 24.9275 50.2127C24.715 49.8712 24.5749 49.4901 24.516 49.093C24.4999 48.8593 24.4999 48.6247 24.516 48.391V44.439C24.5835 44.5901 24.6671 44.7336 24.7654 44.8671C25.0384 45.1898 25.3538 45.4746 25.7032 45.714L29.496 48.5322C33.1334 51.2026 36.826 53.7934 40.574 56.3046L42.9995 57.9626L44.0359 58.5093H44.0568C44.4806 58.6742 44.9375 58.7386 45.3909 58.6974C45.8431 58.657 46.2798 58.5138 46.6672 58.2787L47.1508 58.0152H47.1584L56.8586 51.1462C57.7038 50.5429 58.4554 49.8201 59.0897 49.0008C59.8596 48.0356 60.4466 46.9398 60.8221 45.7667Z" fill="url(#paint4_radial_6901_409)"/>
</g>
<g filter="url(#filter3_d_6901_409)">
<g style="mix-blend-mode:difference" opacity="0.9">
<g style="mix-blend-mode:difference" opacity="0.9">
<path d="M60.8299 45.7662C60.8887 45.5912 60.9702 45.3399 61.0546 45.0934V48.4235C61.053 49.0577 61.0032 49.6909 60.9058 50.3176C60.5797 52.4964 59.4752 54.4861 57.7937 55.9239L56.2766 57.166C54.5404 58.457 52.7549 59.7 50.9495 60.943L47.0761 63.6098L46.7338 63.8045C46.3012 64.0803 45.7972 64.2254 45.283 64.2223C44.9805 64.2253 44.6801 64.1733 44.3964 64.0689C43.9875 63.9309 43.6015 63.7333 43.251 63.4827L31.5482 55.3716L25.7641 51.0921C25.4304 50.8578 25.1484 50.5584 24.9353 50.2123C24.7228 49.8707 24.5828 49.4897 24.5238 49.0925C24.5077 48.8588 24.5077 48.6243 24.5238 48.3905V44.4385C24.5913 44.5896 24.6749 44.7332 24.7732 44.8666C25.0462 45.1893 25.3616 45.4741 25.711 45.7135L29.5038 48.5317C33.1412 51.2022 36.8338 53.793 40.5818 56.3041L43.0073 57.9621L44.0437 58.5088H44.0646C44.4885 58.6737 44.9453 58.7381 45.3987 58.697C45.8509 58.6566 46.2876 58.5133 46.675 58.2782L47.1586 58.0148H47.1662L56.8664 51.1457C57.7116 50.5424 58.4633 49.8196 59.0975 49.0003C59.8674 48.0352 60.4544 46.9394 60.8299 45.7662Z" fill="url(#paint5_radial_6901_409)"/>
</g>
</g>
</g>
<g style="mix-blend-mode:color-dodge">
<path d="M0.385251 33.2158C0.246022 20.7377 -0.154368 16.4244 3.08306 11.2592C8.32101 2.9021 14.0291 1.25399 18.078 0.635558C23.476 -0.188927 27.1436 0.269861 34.0078 0.269861H53.8212C65.5891 0.269861 57.9284 0.269453 62.6644 0.269565C73.1137 -0.417254 80.2414 6.79464 80.2414 6.79464C86.4687 13.6632 86.4688 20.9438 86.4688 20.9438V52.5457C86.4688 64.0768 86.2618 64.6962 86.2618 64.6962C86.2618 64.6962 86.2618 73.7626 78.1654 80.6998C72.3471 85.685 66.7307 85.9421 53.8212 85.5764H34.0078C23.411 85.324 19.3974 86.629 11.7118 82.7139C4.32305 78.9501 1.40514 73.5788 0.385251 65.0396C-0.165158 60.4312 0.385251 64.1615 0.385251 52.6304V33.2158Z" fill="url(#paint6_linear_6901_409)"/>
</g>
<defs>
<filter id="filter0_d_6901_409" x="22.3242" y="30.4355" width="38.8574" height="23.0562" filterUnits="userSpaceOnUse" color-interpolation-filters="sRGB">
<feFlood flood-opacity="0" result="BackgroundImageFix"/>
<feColorMatrix in="SourceAlpha" type="matrix" values="0 0 0 0 0 0 0 0 0 0 0 0 0 0 0 0 0 0 127 0" result="hardAlpha"/>
<feOffset dx="-1" dy="1"/>
<feGaussianBlur stdDeviation="0.5"/>
<feComposite in2="hardAlpha" operator="out"/>
<feColorMatrix type="matrix" values="0 0 0 0 0.0980392 0 0 0 0 0.105882 0 0 0 0 0.113725 0 0 0 0.55 0"/>
<feBlend mode="normal" in2="BackgroundImageFix" result="effect1_dropShadow_6901_409"/>
<feBlend mode="normal" in="SourceGraphic" in2="effect1_dropShadow_6901_409" result="shape"/>
</filter>
<filter id="filter1_d_6901_409" x="22.5117" y="44.4385" width="38.543" height="21.7839" filterUnits="userSpaceOnUse" color-interpolation-filters="sRGB">
<feFlood flood-opacity="0" result="BackgroundImageFix"/>
<feColorMatrix in="SourceAlpha" type="matrix" values="0 0 0 0 0 0 0 0 0 0 0 0 0 0 0 0 0 0 127 0" result="hardAlpha"/>
<feOffset dx="-1" dy="1"/>
<feGaussianBlur stdDeviation="0.5"/>
<feComposite in2="hardAlpha" operator="out"/>
<feColorMatrix type="matrix" values="0 0 0 0 0.0965366 0 0 0 0 0.105884 0 0 0 0 0.112652 0 0 0 0.55 0"/>
<feBlend mode="normal" in2="BackgroundImageFix" result="effect1_dropShadow_6901_409"/>
<feBlend mode="normal" in="SourceGraphic" in2="effect1_dropShadow_6901_409" result="shape"/>
</filter>
<filter id="filter2_d_6901_409" x="22.3242" y="30.4355" width="38.8574" height="23.0562" filterUnits="userSpaceOnUse" color-interpolation-filters="sRGB">
<feFlood flood-opacity="0" result="BackgroundImageFix"/>
<feColorMatrix in="SourceAlpha" type="matrix" values="0 0 0 0 0 0 0 0 0 0 0 0 0 0 0 0 0 0 127 0" result="hardAlpha"/>
<feOffset dx="-1" dy="1"/>
<feGaussianBlur stdDeviation="0.5"/>
<feComposite in2="hardAlpha" operator="out"/>
<feColorMatrix type="matrix" values="0 0 0 0 0.0980392 0 0 0 0 0.105882 0 0 0 0 0.113725 0 0 0 0.55 0"/>
<feBlend mode="normal" in2="BackgroundImageFix" result="effect1_dropShadow_6901_409"/>
<feBlend mode="normal" in="SourceGraphic" in2="effect1_dropShadow_6901_409" result="shape"/>
</filter>
<filter id="filter3_d_6901_409" x="22.5117" y="44.4385" width="38.543" height="21.7839" filterUnits="userSpaceOnUse" color-interpolation-filters="sRGB">
<feFlood flood-opacity="0" result="BackgroundImageFix"/>
<feColorMatrix in="SourceAlpha" type="matrix" values="0 0 0 0 0 0 0 0 0 0 0 0 0 0 0 0 0 0 127 0" result="hardAlpha"/>
<feOffset dx="-1" dy="1"/>
<feGaussianBlur stdDeviation="0.5"/>
<feComposite in2="hardAlpha" operator="out"/>
<feColorMatrix type="matrix" values="0 0 0 0 0.0965366 0 0 0 0 0.105884 0 0 0 0 0.112652 0 0 0 0.55 0"/>
<feBlend mode="normal" in2="BackgroundImageFix" result="effect1_dropShadow_6901_409"/>
<feBlend mode="normal" in="SourceGraphic" in2="effect1_dropShadow_6901_409" result="shape"/>
</filter>
<radialGradient id="paint0_radial_6901_409" cx="0" cy="0" r="1" gradientUnits="userSpaceOnUse" gradientTransform="translate(37.8927 7.52092) rotate(54.8302) scale(63.0936 113.979)">
<stop stop-color="#0A0909"/>
<stop offset="1" stop-opacity="0.4"/>
</radialGradient>
<radialGradient id="paint1_radial_6901_409" cx="0" cy="0" r="1" gradientUnits="userSpaceOnUse" gradientTransform="translate(69.7218 28.5545) rotate(127.07) scale(44.7029 82.1139)">
<stop/>
<stop offset="1" stop-color="#0F1010"/>
</radialGradient>
<radialGradient id="paint2_radial_6901_409" cx="0" cy="0" r="1" gradientUnits="userSpaceOnUse" gradientTransform="translate(37.9645 22.9082) rotate(53.3675) scale(60.3876 110.937)">
<stop/>
<stop offset="1" stop-opacity="0.93"/>
</radialGradient>
<radialGradient id="paint3_radial_6901_409" cx="0" cy="0" r="1" gradientUnits="userSpaceOnUse" gradientTransform="translate(37.8927 7.52092) rotate(54.8302) scale(63.0936 113.979)">
<stop offset="0.416667" stop-color="white"/>
<stop offset="1" stop-color="#FAFAFA" stop-opacity="0.4"/>
</radialGradient>
<radialGradient id="paint4_radial_6901_409" cx="0" cy="0" r="1" gradientUnits="userSpaceOnUse" gradientTransform="translate(69.7218 28.5545) rotate(127.07) scale(44.7029 82.1139)">
<stop stop-color="#F1F6FB"/>
<stop offset="1" stop-color="#E5F4F5" stop-opacity="0.31"/>
</radialGradient>
<radialGradient id="paint5_radial_6901_409" cx="0" cy="0" r="1" gradientUnits="userSpaceOnUse" gradientTransform="translate(37.9645 22.9082) rotate(53.3675) scale(60.3876 110.937)">
<stop offset="0.416667" stop-color="#E1F5FC"/>
<stop offset="1" stop-color="#FAFAFA" stop-opacity="0"/>
</radialGradient>
<linearGradient id="paint6_linear_6901_409" x1="19.84" y1="3.08155" x2="61.469" y2="84.7967" gradientUnits="userSpaceOnUse">
<stop stop-color="#33343B"/>
<stop offset="1" stop-color="#18191E"/>
</linearGradient>
</defs>
</svg>
