<svg width="257" height="256" viewBox="0 0 257 256" fill="none" xmlns="http://www.w3.org/2000/svg">
<path d="M256 127.894C256.024 157.287 245.932 185.792 227.418 208.622C208.905 231.452 183.099 247.214 154.335 253.262C125.571 259.309 95.6017 255.272 69.4626 241.83C43.3236 228.388 22.6071 206.36 10.7936 179.445C-1.01993 152.531 -3.21066 122.371 4.58943 94.0321C12.3895 65.6932 29.7052 40.9021 53.6273 23.8238C77.5495 6.74548 106.621 -1.57943 135.957 0.247646C165.292 2.07472 193.106 13.9425 214.724 33.8571C227.724 45.8325 238.102 60.3703 245.206 76.5547C252.31 92.739 255.985 110.219 256 127.894V127.894Z" fill="#05976C"/>
<path d="M256.002 127.901C255.104 152.039 247.124 175.381 233.057 195.017C218.99 214.654 199.457 229.719 176.891 238.336C154.324 246.952 129.722 248.74 106.147 243.477C82.5717 238.213 61.0659 226.131 44.3075 208.734C27.549 191.338 16.2785 169.395 11.8994 145.64C7.52033 121.885 10.2262 97.3664 19.6799 75.1377C29.1337 52.909 44.9177 33.9525 65.0664 20.6289C85.215 7.30522 108.838 0.203125 132.993 0.207033C166.034 1.44282 197.309 15.437 220.247 39.249C243.186 63.0611 256.002 94.8373 256.002 127.901Z" fill="#06AE7D"/>
<path d="M219.413 127.841C219.495 153.616 209.657 178.372 192.056 196.684C174.454 214.995 150.526 225.367 125.517 225.525C100.508 225.684 76.4575 215.616 58.6393 197.529C40.8211 179.442 30.6885 154.811 30.4629 129.037V127.841C30.4629 102.017 40.4167 77.2511 58.1347 58.9911C75.8526 40.731 99.8832 30.4727 124.94 30.4727H126.106C150.962 30.7794 174.699 41.1727 192.168 59.3986C209.637 77.6245 219.429 102.213 219.422 127.832L219.413 127.841Z" fill="#1C2926"/>
<path d="M190.575 58.3982L57.9588 193.265C40.5707 175.729 30.6677 151.967 30.3822 127.098L30.3807 125.927C30.3492 100.668 40.2108 76.4299 57.7965 58.5458C75.3822 40.6617 99.2515 30.5958 124.154 30.5624L125.312 30.5609C149.819 30.8236 173.248 40.8172 190.575 58.3982Z" fill="#1D3420"/>
<path d="M228.175 127.998C228.175 140.788 225.587 153.453 220.557 165.269C215.528 177.085 208.156 187.822 198.862 196.866C189.568 205.91 178.534 213.084 166.391 217.978C154.247 222.873 141.232 225.392 128.088 225.392C126.19 225.392 124.306 225.341 122.436 225.24C147.965 223.838 171.974 212.982 189.538 194.9C207.102 176.818 216.888 152.881 216.888 128.001C216.888 103.12 207.102 79.1829 189.538 61.1009C171.974 43.0189 147.965 32.1634 122.436 30.7618C124.306 30.6602 126.19 30.6094 128.088 30.6094C154.633 30.6094 180.09 40.87 198.86 59.134C217.63 77.398 228.175 102.169 228.175 127.998V127.998Z" fill="black"/>
<path fill-rule="evenodd" clip-rule="evenodd" d="M126.471 189.217C92.2927 172.187 75.1812 148.787 75.1372 119.015C75.1262 113.3 75.1262 103.932 75.1372 90.908L126.471 72.3477V189.217Z" fill="#07FBB3"/>
<path fill-rule="evenodd" clip-rule="evenodd" d="M126.471 189.217C92.2927 172.187 75.1812 148.787 75.1372 119.015C75.1262 113.3 75.1262 103.932 75.1372 90.908L126.471 72.3477V189.217Z" fill="url(#paint0_linear_6993_430)" fill-opacity="0.4"/>
<path fill-rule="evenodd" clip-rule="evenodd" d="M126.449 153.324V130.154L168.65 87.7453L177.322 90.908L177.329 102.193L126.449 153.324ZM126.449 173.98L177.217 122.967C175.73 150.866 158.809 172.95 126.449 189.217V173.98ZM126.449 109.498V72.3477L153.568 82.2451L126.449 109.494V109.498Z" fill="#E3EEE2"/>
<defs>
<linearGradient id="paint0_linear_6993_430" x1="110.424" y1="88.2419" x2="95.7376" y2="169.876" gradientUnits="userSpaceOnUse">
<stop stop-opacity="0.42"/>
<stop offset="0.834177"/>
</linearGradient>
</defs>
</svg>
