<svg width="257" height="256" viewBox="0 0 257 256" fill="none" xmlns="http://www.w3.org/2000/svg">
<path d="M256 127.894C256.024 157.287 245.932 185.792 227.418 208.622C208.905 231.452 183.099 247.214 154.335 253.262C125.571 259.309 95.6017 255.272 69.4626 241.83C43.3235 228.388 22.6071 206.36 10.7936 179.445C-1.01993 152.531 -3.21066 122.371 4.58943 94.0321C12.3895 65.6932 29.7052 40.9021 53.6273 23.8238C77.5495 6.74548 106.62 -1.57943 135.956 0.247646C165.292 2.07472 193.106 13.9425 214.724 33.8571C227.724 45.8325 238.102 60.3703 245.206 76.5547C252.31 92.739 255.985 110.219 256 127.894V127.894Z" fill="#475563"/>
<path d="M256.018 127.922C255.119 152.061 247.14 175.402 233.073 195.039C219.006 214.676 199.473 229.74 176.906 238.357C154.34 246.974 129.737 248.762 106.162 243.498C82.5873 238.235 61.0815 226.152 44.3231 208.756C27.5647 191.359 16.2942 169.417 11.9151 145.662C7.53596 121.906 10.2418 97.3878 19.6956 75.1592C29.1493 52.9305 44.9333 33.974 65.082 20.6504C85.2306 7.3267 108.854 0.22461 133.009 0.228517C166.049 1.4643 197.325 15.4585 220.263 39.2705C243.201 63.0826 256.017 94.8588 256.018 127.922Z" fill="#375067"/>
<path d="M219.409 127.847C219.491 153.621 209.653 178.378 192.052 196.69C174.45 215.001 150.522 225.373 125.513 225.531C100.504 225.689 76.4536 215.622 58.6354 197.535C40.8172 179.448 30.6846 154.817 30.459 129.043V127.847C30.459 102.023 40.4128 77.257 58.1307 58.9969C75.8487 40.7369 99.8793 30.4785 124.936 30.4785H126.102C150.958 30.7852 174.695 41.1786 192.164 59.4045C209.633 77.6303 219.425 102.219 219.418 127.838L219.409 127.847Z" fill="#1A2E41"/>
<path d="M190.604 58.406L57.9881 193.273C40.6 175.737 30.697 151.975 30.4115 127.106L30.41 125.935C30.3785 100.675 40.2401 76.4377 57.8258 58.5536C75.4115 40.6695 99.2808 30.6036 124.183 30.5702L125.342 30.5687C149.848 30.8314 173.277 40.825 190.604 58.406V58.406Z" fill="#2C465E"/>
<path d="M195.018 56.3728L57.5 193.5C53.5 189 46 178.5 39.584 170.674L172.5 39.5C178.5 43.5 187 47 195.018 56.3728Z" fill="#425C6A" fill-opacity="0.3"/>
<path d="M228 127.498C228.001 140.302 225.43 152.98 220.436 164.81C215.442 176.639 208.121 187.388 198.892 196.442C189.663 205.496 178.706 212.678 166.648 217.578C154.59 222.478 141.665 225 128.613 225C126.728 225 124.857 224.949 123 224.847C148.351 223.444 172.193 212.577 189.634 194.474C207.075 176.372 216.792 152.408 216.792 127.5C216.792 102.592 207.075 78.6277 189.634 60.5256C172.193 42.4234 148.351 31.5557 123 30.1526C124.857 30.0509 126.728 30 128.613 30C154.972 30 180.252 40.2721 198.89 58.5564C217.529 76.8408 228 101.64 228 127.498V127.498Z" fill="#030529"/>
<path d="M150.893 164.765C145.619 169.774 138.563 173.112 129.885 174.727V190.813C129.885 196.336 125.408 200.813 119.885 200.813C114.363 200.813 109.887 196.336 109.887 190.813V175.26C97.2182 173.543 87.7364 168.056 81.713 158.916C79.8684 156.118 79.5487 152.582 80.8612 149.5C82.1737 146.415 84.9422 144.194 88.2364 143.583L95.7847 142.181C99.6461 141.463 103.573 143.076 105.817 146.301C108.656 150.382 113.461 152.45 120.095 152.45C130.316 152.45 130.316 148.387 130.316 147.052C130.316 145.116 129.59 143.706 128.03 142.62C126.437 141.508 123.535 140.52 119.405 139.68C102.801 136.297 92.1059 131.905 87.6074 126.624C83.0447 121.268 80.8259 115.282 80.8259 108.321C80.8259 100.762 83.3212 93.9589 88.2444 88.0998C93.0081 82.4265 100.292 78.7453 109.887 77.1387V65.6264C109.887 60.1038 114.363 55.627 119.885 55.627C125.408 55.627 129.885 60.1038 129.885 65.6264V77.3519C138.474 78.9921 145.178 82.4626 150.27 87.9098C152.619 90.4219 153.511 93.9645 152.635 97.2875C151.758 100.613 149.234 103.255 145.953 104.281L140.774 105.902C137.017 107.079 132.919 105.939 130.306 102.994C127.701 100.056 123.834 98.5672 118.813 98.5672C114.77 98.5672 109.948 99.5295 109.948 104.117C109.948 105.415 110.446 106.586 111.388 107.504C112.373 108.466 115.247 109.487 119.934 110.531C130.746 112.897 138.651 115.055 143.384 116.938C148.179 118.851 152.22 122.125 155.398 126.675C158.577 131.218 160.192 136.666 160.192 142.859C160.193 151.532 157.064 158.903 150.893 164.765Z" fill="#131621"/>
<path d="M162.83 169.138C157.557 174.147 150.5 177.485 141.822 179.1V195.186C141.822 200.709 137.346 205.186 131.823 205.186C126.3 205.186 121.824 200.709 121.824 195.186V179.633C109.156 177.917 99.6739 172.429 93.6505 163.289C91.8059 160.491 91.4862 156.955 92.7987 153.873C94.1112 150.788 96.8797 148.567 100.174 147.956L107.722 146.554C111.584 145.836 115.51 147.449 117.754 150.674C120.593 154.755 125.398 156.823 132.033 156.823C142.253 156.823 142.253 152.76 142.253 151.425C142.253 149.489 141.528 148.079 139.967 146.993C138.374 145.881 135.472 144.893 131.342 144.053C114.738 140.67 104.043 136.278 99.5449 130.997C94.9822 125.641 92.7634 119.655 92.7634 112.694C92.7634 105.135 95.2587 98.3319 100.182 92.4728C104.946 86.7996 112.229 83.1184 121.824 81.5118V69.9995C121.824 64.4769 126.3 60 131.823 60C137.346 60 141.822 64.4769 141.822 69.9995V81.7249C150.412 83.3652 157.115 86.8356 162.208 92.2829C164.556 94.795 165.449 98.3375 164.572 101.661C163.696 104.986 161.171 107.628 157.891 108.654L152.711 110.275C148.955 111.452 144.857 110.312 142.244 107.367C139.639 104.429 135.772 102.94 130.751 102.94C126.707 102.94 121.886 103.903 121.886 108.49C121.886 109.788 122.384 110.959 123.325 111.877C124.311 112.84 127.185 113.86 131.871 114.904C142.684 117.27 150.589 119.428 155.321 121.311C160.116 123.224 164.158 126.499 167.335 131.048C170.515 135.591 172.129 141.039 172.129 147.232C172.131 155.906 169.002 163.276 162.83 169.138Z" fill="#B4CCE1"/>
</svg>
