<svg width="24" height="24" viewBox="0 0 24 24" fill="none" xmlns="http://www.w3.org/2000/svg">
<path fill-rule="evenodd" clip-rule="evenodd" d="M2.52621 4.63587C2 5.66862 2 7.02067 2 9.72412V14.2759C2 16.9793 2 18.331 2.52621 19.3642C2.98904 20.2724 3.72753 21.011 4.63587 21.4739C5.66862 22 7.02067 22 9.72412 22H14.2759C16.9793 22 18.331 22 19.3642 21.4739C20.2724 21.011 21.011 20.2724 21.4739 19.3642C22 18.3314 22 16.9793 22 14.2759V9.72412C22 7.0207 22 5.66897 21.4739 4.63587C21.011 3.72753 20.2724 2.98904 19.3642 2.52621C18.3314 2 16.9793 2 14.2759 2H9.72412C7.02067 2 5.66897 2 4.63587 2.52621C3.72753 2.98904 2.98904 3.72753 2.52621 4.63587ZM7.72172 9.20665C7.7151 9.20132 7.70848 9.196 7.70312 9.19053V9.33125C7.70587 9.33998 7.70935 9.3487 7.71285 9.35743C7.72038 9.3762 7.7279 9.395 7.72795 9.41383C7.72818 9.49808 7.72827 9.5823 7.72827 9.66655C7.72825 9.86035 7.7278 10.0541 7.72735 10.2479L7.72687 10.4656L7.72695 10.4662L7.72687 10.5025C7.75807 10.7258 7.89672 10.8735 8.07225 10.9985C8.4884 11.2947 8.90425 11.5912 9.3201 11.8879L9.3224 11.8895C9.92965 12.3226 10.5369 12.7557 11.1451 13.1876C11.3925 13.3633 11.6449 13.5324 11.8994 13.698C12.1475 13.8594 12.4158 13.9057 12.669 13.729C13.4479 13.1858 14.2263 12.6414 14.9897 12.077C15.448 11.7382 15.735 11.2677 15.7812 10.6971C15.7962 10.5124 15.8005 10.3269 15.8001 10.145C15.8004 9.99407 15.7973 9.84545 15.7942 9.70153C15.7915 9.57165 15.7889 9.44558 15.7889 9.32525C15.7826 9.35498 15.7765 9.38995 15.7698 9.42845L15.7698 9.42875C15.7526 9.52725 15.7314 9.64888 15.6934 9.76508C15.542 10.2287 15.2523 10.5948 14.8551 10.8764C14.1547 11.3731 13.4532 11.8684 12.7512 12.363C12.4439 12.5794 12.1971 12.5921 11.8857 12.3738C10.5968 11.4702 9.31213 10.5603 8.0278 9.6501C7.88795 9.551 7.77285 9.4271 7.7518 9.24258C7.75033 9.22963 7.73602 9.21812 7.72172 9.20665ZM15.8263 12.1399C15.8258 12.1548 15.8253 12.1697 15.8248 12.1846L15.8263 12.1804C15.821 12.334 15.8187 12.488 15.8164 12.642C15.8112 12.9916 15.806 13.3413 15.7653 13.6868C15.7025 14.2199 15.4092 14.6553 14.9785 14.9723C14.2656 15.497 13.5401 16.005 12.8148 16.513L12.6788 16.6083C12.4087 16.7975 12.1333 16.7413 11.8757 16.5695C11.5403 16.3457 11.2056 16.1205 10.877 15.8869C10.2058 15.4096 9.53632 14.9301 8.8668 14.4505C8.5917 14.2534 8.31645 14.0563 8.04125 13.8594C7.87233 13.7385 7.75155 13.5869 7.7254 13.374L7.72552 13.3345L7.7254 13.3335L7.72605 13.1329C7.72692 12.8803 7.72778 12.6277 7.72783 12.3751L7.72775 12.271C7.72772 12.2551 7.72028 12.2393 7.7128 12.2234C7.70933 12.216 7.70585 12.2086 7.70312 12.2012L7.70315 12.0827C7.70827 12.0862 7.71472 12.0895 7.72115 12.0928C7.73497 12.0999 7.74877 12.107 7.74967 12.1154C7.7721 12.3212 7.91015 12.4454 8.06313 12.5569C8.20785 12.6624 8.3524 12.7682 8.49695 12.8739C8.94033 13.1983 9.38372 13.5227 9.8325 13.8394C10.3407 14.1981 10.854 14.5495 11.3673 14.901L11.3675 14.9012C11.5196 15.0054 11.6717 15.1095 11.8237 15.2139C12.2046 15.4755 12.416 15.4766 12.7964 15.2101C13.153 14.9603 13.5084 14.7088 13.8638 14.4573L13.8644 14.4569C14.1813 14.2326 14.4983 14.0084 14.816 13.7853C15.2179 13.5032 15.5225 13.1451 15.6805 12.6783C15.7087 12.595 15.7288 12.5091 15.7492 12.4223C15.7712 12.3284 15.7934 12.2335 15.8263 12.1399ZM9.60145 9.068C9.59567 9.07525 9.5893 9.08328 9.58165 9.092C9.58997 9.10118 9.59685 9.1095 9.603 9.11695C9.61443 9.1308 9.62338 9.1416 9.6345 9.14923C9.6616 9.16785 9.6887 9.18645 9.7158 9.20505C9.97465 9.38287 10.2335 9.56067 10.4953 9.73405C10.5211 9.75107 10.5787 9.74418 10.6088 9.72673C10.7205 9.66208 10.8298 9.59343 10.9391 9.52475C10.9767 9.50115 11.0143 9.47755 11.052 9.45412C11.9788 8.87752 12.9059 8.87125 13.8329 9.45335C13.9029 9.4973 13.9716 9.54338 14.0403 9.58943C14.0617 9.60378 14.0831 9.61813 14.1045 9.6324C14.1695 9.67573 14.221 9.67133 14.2705 9.60348C14.4921 9.29988 14.4633 8.84825 14.1848 8.59465C14.0125 8.43775 13.8246 8.29495 13.6304 8.16555C13.2288 7.89788 12.7858 7.74295 12.2974 7.7422C11.7735 7.74137 11.2945 7.90515 10.8608 8.18407C10.5637 8.37517 10.2754 8.58003 9.98712 8.78485C9.86882 8.8689 9.75053 8.95295 9.63163 9.03605C9.62075 9.04365 9.61217 9.05447 9.60145 9.068Z" fill="black"/>
</svg>
